<svg xmlns="http://www.w3.org/2000/svg" width="640" height="360" viewBox="0 0 640 360">
<defs>
<radialGradient id="er-glow" cx="50%" cy="40%" r="60%"><stop offset="0%" stop-color="#fbbf24" stop-opacity="0.15"/><stop offset="100%" stop-color="#0a0800" stop-opacity="0"/></radialGradient>
<linearGradient id="er-bg" x1="0" y1="0" x2="0" y2="1"><stop offset="0%" stop-color="#0d0800"/><stop offset="100%" stop-color="#050300"/></linearGradient>
</defs>
<rect width="640" height="360" fill="url(#er-bg)"/>
<rect width="640" height="360" fill="url(#er-glow)"/>
<!-- Scadutree silhouette -->
<path d="M320 40 L315 60 L325 60 Z M320 60 L310 100 L330 100 Z M320 100 L300 160 L340 160 Z M310 140 L280 200 L290 200 Z M330 140 L350 200 L360 200 Z M320 180 L295 260 L345 260 Z M310 240 L250 340 L280 340 Z M330 240 L360 340 L390 340 Z" fill="#fbbf24" opacity="0.15"/>
<!-- Golden circle (Erdtree motif) -->
<circle cx="320" cy="160" r="80" fill="none" stroke="#fbbf24" stroke-width="1" opacity="0.2"/>
<circle cx="320" cy="160" r="60" fill="none" stroke="#f59e0b" stroke-width="0.5" opacity="0.15"/>
<!-- Text -->
<text x="320" y="280" text-anchor="middle" fill="#fbbf24" font-family="Georgia,serif" font-size="36" font-weight="bold" letter-spacing="3">ELDEN RING</text>
<text x="320" y="315" text-anchor="middle" fill="#f59e0b" font-family="Georgia,serif" font-size="14" letter-spacing="2">SHADOW OF THE ERDTREE</text>
<text x="320" y="345" text-anchor="middle" fill="rgba(251,191,36,0.3)" font-family="sans-serif" font-size="10">FROM SOFTWARE · ★95</text>
</svg>