<svg xmlns="http://www.w3.org/2000/svg" width="640" height="360" viewBox="0 0 640 360">
<defs>
<linearGradient id="mh-bg" x1="0" y1="0" x2="0" y2="1"><stop offset="0%" stop-color="#0a1208"/><stop offset="100%" stop-color="#030602"/></linearGradient>
</defs>
<rect width="640" height="360" fill="url(#mh-bg)"/>
<!-- Dragon head silhouette -->
<path d="M280 100 L240 150 L220 140 L200 170 L230 220 L250 210 L260 240 Q280 290 320 280 Q360 290 380 240 L390 210 L410 220 L440 170 L420 140 L400 150 L360 100 Z" fill="none" stroke="#a3e635" stroke-width="1.5" opacity="0.15"/>
<!-- Eye -->
<circle cx="320" cy="170" r="8" fill="#fbbf24" opacity="0.2"/>
<!-- Teeth marks -->
<path d="M260 230 L270 240 M280 245 L290 250 M350 250 L360 245 M370 240 L380 230" stroke="#a3e635" stroke-width="0.8" opacity="0.1"/>
<text x="320" y="285" text-anchor="middle" fill="#a3e635" font-family="Georgia,serif" font-size="26" font-weight="bold" letter-spacing="2">MONSTER HUNTER</text>
<text x="320" y="318" text-anchor="middle" fill="#84cc16" font-family="Georgia,serif" font-size="18" letter-spacing="6">WILDS</text>
<text x="320" y="346" text-anchor="middle" fill="rgba(163,230,53,0.3)" font-family="sans-serif" font-size="10">CAPCOM · ★89 · CROSS-PLAY</text>
</svg>